<?xml version="1.0" encoding="utf-8"?>
<!-- Generator: Adobe Illustrator 24.0.1, SVG Export Plug-In . SVG Version: 6.00 Build 0)  -->
<svg version="1.0" id="Layer_1" xmlns="http://www.w3.org/2000/svg" xmlns:xlink="http://www.w3.org/1999/xlink" x="0px" y="0px"
	 viewBox="0 0 2000 2000" style="enable-background:new 0 0 2000 2000;" xml:space="preserve">
<style type="text/css">
	.st0{fill:#212121;}
	.st1{fill:none;stroke:#212121;stroke-width:24;stroke-miterlimit:10;}
	.st2{fill:none;stroke:#212121;stroke-width:8;stroke-miterlimit:10;}
	.st3{fill:#B0271C;}
	.st4{opacity:0.2;}
</style>
<g>
	<g>
		<g>
			<path d="M545.68,1131.85v26.2h-5.21v-26.2h-9.75v-4.68h24.75v4.68H545.68z"/>
			<path d="M587.19,1131.85v8.34h15.09v4.68h-15.09v8.51h17.38v4.68h-22.59v-30.88h22.06v4.68H587.19z"/>
			<path d="M653.94,1130.13l-2.16,4.59c-3.35-2.03-6.71-2.87-9.04-2.87c-3.04,0-5.03,1.15-5.03,3.22c0,6.75,16.67,3.13,16.63,14.25
				c0,5.51-4.85,8.91-11.65,8.91c-4.85,0-9.44-1.98-12.62-4.9l2.25-4.5c3.18,2.91,7.15,4.5,10.46,4.5c3.62,0,5.78-1.37,5.78-3.75
				c0-6.88-16.67-3.04-16.67-14.03c0-5.29,4.54-8.6,11.25-8.6C647.15,1126.96,651.07,1128.24,653.94,1130.13z"/>
			<path d="M693.78,1131.85v26.2h-5.21v-26.2h-9.75v-4.68h24.75v4.68H693.78z"/>
			<path d="M775.84,1127.18c7.76,0,12.22,3.84,12.22,10.54c0,6.97-4.46,11.03-12.22,11.03h-7.1v9.31h-5.21v-30.88H775.84z
				 M768.74,1144.07h6.88c4.76,0,7.46-2.03,7.46-6.22c0-4.06-2.69-6-7.46-6h-6.88V1144.07z"/>
			<path d="M829.22,1148.71c-0.44,0.04-0.93,0.04-1.41,0.04h-7.32v9.31h-5.21v-30.88h12.53c7.9,0,12.44,3.84,12.44,10.54
				c0,4.94-2.29,8.43-6.4,10.01l6.93,10.32h-5.91L829.22,1148.71z M827.81,1144.07c4.76,0,7.5-2.03,7.5-6.22c0-4.06-2.74-6-7.5-6
				h-7.32v12.22H827.81z"/>
			<path d="M874.44,1131.85v8.34h15.09v4.68h-15.09v8.51h17.38v4.68h-22.59v-30.88h22.06v4.68H874.44z"/>
			<path d="M932.54,1127.18c7.76,0,12.22,3.84,12.22,10.54c0,6.97-4.46,11.03-12.22,11.03h-7.1v9.31h-5.21v-30.88H932.54z
				 M925.44,1144.07h6.88c4.76,0,7.46-2.03,7.46-6.22c0-4.06-2.69-6-7.46-6h-6.88V1144.07z"/>
			<path d="M1022.9,1154.18c-2.74,2.6-5.91,4.1-9.31,4.1c-5.51,0-9.7-3.66-9.7-8.65c0-4.37,3.18-6.71,6.66-8.56
				c-2.03-2.74-2.96-4.94-2.96-7.15c0-4.1,3.22-6.97,8.03-6.97c4.63,0,7.81,2.69,7.81,6.48c0,4.23-3.71,6.44-7.5,8.43
				c1.68,1.9,3.84,4.1,6.48,6.71c1.06-1.59,1.98-3.44,2.78-5.56l3.31,2.47c-0.93,2.21-1.98,4.19-3.22,5.87l5.03,4.9l-2.6,2.65
				L1022.9,1154.18z M1020.12,1151.44c-3.09-3.09-5.56-5.6-7.5-7.81c-2.56,1.46-4.54,3.09-4.54,5.6c0,3.09,2.51,5.21,5.69,5.21
				C1016.01,1154.44,1018.18,1153.34,1020.12,1151.44z M1013.9,1139.35c3-1.54,5.51-3.13,5.51-5.87c0-2.03-1.46-3.35-3.75-3.35
				c-2.47,0-4.06,1.63-4.06,3.75C1011.6,1135.52,1012.35,1137.24,1013.9,1139.35z"/>
			<path d="M1101.47,1131.85v26.2h-5.21v-26.2h-9.75v-4.68h24.75v4.68H1101.47z"/>
			<path d="M1164.03,1145.26c0,8.07-5.07,13.01-13.41,13.01s-13.45-4.94-13.45-13.01v-18.09h5.21v18.09c0,5.21,3.22,8.34,8.29,8.34
				c5.03,0,8.16-3.09,8.16-8.34v-18.09h5.21V1145.26z"/>
			<path d="M1204.84,1131.85v26.2h-5.21v-26.2h-9.75v-4.68h24.75v4.68H1204.84z"/>
			<path d="M1269.47,1142.62c0,8.82-7.15,15.66-16.37,15.66s-16.37-6.84-16.37-15.66c0-8.87,7.15-15.57,16.37-15.57
				S1269.47,1133.8,1269.47,1142.62z M1242.03,1142.62c0,6.13,5.07,10.98,11.12,10.98c6.04,0,10.98-4.85,10.98-10.98
				c0-6.13-4.94-10.9-10.98-10.9C1247.06,1131.72,1242.03,1136.49,1242.03,1142.62z"/>
			<path d="M1311.03,1148.71c-0.44,0.04-0.93,0.04-1.41,0.04h-7.32v9.31h-5.21v-30.88h12.53c7.9,0,12.44,3.84,12.44,10.54
				c0,4.94-2.29,8.43-6.4,10.01l6.93,10.32h-5.91L1311.03,1148.71z M1309.62,1144.07c4.76,0,7.5-2.03,7.5-6.22c0-4.06-2.74-6-7.5-6
				h-7.32v12.22H1309.62z"/>
			<path d="M1351.05,1158.06v-30.88h5.21v30.88H1351.05z"/>
			<path d="M1408.09,1158.06l-16.45-22.15v22.15h-5.21v-30.88h5.12l16.54,22.19v-22.19h5.12v30.88H1408.09z"/>
			<path d="M1469.1,1142.88v11.38c-3.13,2.38-7.76,4.01-12,4.01c-9.13,0-16.23-6.84-16.23-15.66c0-8.82,7.19-15.57,16.54-15.57
				c4.41,0,8.82,1.68,11.87,4.32l-2.96,3.84c-2.38-2.21-5.69-3.53-8.91-3.53c-6.31,0-11.25,4.81-11.25,10.94
				c0,6.18,4.98,10.98,11.29,10.98c2.29,0,4.9-0.79,7.1-2.12v-8.6H1469.1z"/>
		</g>
	</g>
	<g>
		<g>
			<g>
				<path d="M575.41,1082.19V958.37l-48.8,105.2h-27.02l-48.8-105.2v123.83h-37.52V898.55h46.44l53.52,112.28l53.26-112.28h46.17
					v183.64H575.41z"/>
				<path d="M948.45,1029.72h-3.94h-38.3v52.47h-41.45V898.55h79.75c48.01,0,75.29,23.09,75.29,63.75
					c0,28.33-12.07,48.8-34.37,59.29l39.09,60.6h-46.96L948.45,1029.72z M944.52,995.09c22.82,0,35.94-10.49,35.94-31.48
					c0-20.46-13.12-30.69-35.94-30.69h-38.3v62.18H944.52z"/>
				<path d="M1096.15,932.92v39.88h88.67v34.37h-88.67v40.66h101.26v34.37H1054.7V898.55h139.83v34.37H1096.15z"/>
				<path d="M1309.17,933.71v148.49h-41.45V933.71h-55.88v-35.15h153.47v35.15H1309.17z"/>
				<path d="M1466.83,933.71v148.49h-41.45V933.71h-55.88v-35.15h153.47v35.15H1466.83z"/>
				<path d="M1545.27,1082.19V898.55h41.45v183.64H1545.27z"/>
			</g>
		</g>
		<g>
			<g>
				<path class="st3" d="M791.8,966.92c-1.43-3.4-3.19-6.62-5.23-9.62c-1.51-2.23-3.18-4.34-5-6.32c-2.99-3.29-6.37-6.21-10.07-8.72
					c-4.48-3.02-9.42-5.42-14.71-7.07c-5.28-1.64-10.9-2.52-16.67-2.52c-7.7,0-15.12,1.57-21.84,4.41
					c-10.09,4.28-18.62,11.36-24.67,20.31c-3.02,4.47-5.42,9.42-7.06,14.7c-1.65,5.28-2.53,10.9-2.53,16.68
					c0,7.69,1.57,15.11,4.42,21.84c4.27,10.09,11.36,18.62,20.3,24.66c4.47,3.02,9.42,5.42,14.7,7.07
					c5.29,1.64,10.91,2.52,16.68,2.52c7.69,0,15.12-1.57,21.84-4.41c10.09-4.28,18.62-11.36,24.66-20.31
					c3.03-4.47,5.43-9.42,7.07-14.7c1.64-5.28,2.53-10.9,2.52-16.67C796.22,981.07,794.65,973.65,791.8,966.92z M758.64,996.58
					c-1.51,3.59-4.08,6.69-7.3,8.86c-1.61,1.09-3.37,1.94-5.24,2.52c-1.87,0.58-3.86,0.9-5.98,0.9c-2.83,0-5.42-0.56-7.82-1.57
					c-3.58-1.51-6.69-4.08-8.86-7.3c-1.08-1.61-1.93-3.37-2.52-5.24c-0.58-1.88-0.9-3.87-0.9-5.98c0-2.83,0.56-5.43,1.57-7.82
					c1.52-3.58,4.09-6.69,7.3-8.86c1.61-1.09,3.37-1.94,5.25-2.52c1.87-0.58,3.86-0.9,5.98-0.9c2.82,0,5.42,0.56,7.82,1.57
					c3.19,1.34,5.99,3.53,8.11,6.26c0.25,0.34,0.5,0.69,0.74,1.04c1.09,1.61,1.94,3.37,2.52,5.24c0.14,0.46,0.27,0.93,0.38,1.4
					c0.34,1.46,0.52,2.98,0.52,4.59C760.21,991.59,759.65,994.19,758.64,996.58z"/>
				<path class="st3" d="M843.69,945c-4.3-10.15-10.03-19.52-16.94-27.88c-1.71-2.06-3.49-4.06-5.33-5.99
					c-5.56-5.82-11.74-11.04-18.44-15.57c-8.97-6.06-18.87-10.86-29.44-14.15c-10.57-3.29-21.82-5.06-33.42-5.06
					c-15.47,0-30.3,3.15-43.76,8.84c-20.2,8.55-37.33,22.78-49.44,40.71c-6.06,8.97-10.87,18.87-14.16,29.44
					c-3.29,10.58-5.05,21.82-5.05,33.43c-0.01,15.47,3.14,30.3,8.84,43.76c8.54,20.19,22.77,37.32,40.71,49.44
					c8.96,6.06,18.86,10.86,29.44,14.15c10.57,3.29,21.82,5.06,33.42,5.06c15.47,0,30.3-3.15,43.76-8.84
					c20.2-8.55,37.32-22.78,49.44-40.71c6.06-8.97,10.86-18.87,14.15-29.44c3.29-10.58,5.06-21.82,5.06-33.42
					C852.53,973.29,849.38,958.46,843.69,945z M810.53,1018.5c-5.78,13.69-15.5,25.4-27.7,33.64c-6.1,4.12-12.82,7.38-19.98,9.6
					c-7.17,2.23-14.78,3.44-22.73,3.44c-10.6-0.01-20.61-2.14-29.74-6c-13.69-5.79-25.39-15.5-33.63-27.71
					c-4.13-6.1-7.38-12.81-9.61-19.98c-2.23-7.16-3.43-14.77-3.43-22.72c0-10.6,2.13-20.61,5.99-29.74
					c5.79-13.69,15.5-25.4,27.71-33.64c6.1-4.12,12.82-7.38,19.98-9.6c7.16-2.23,14.78-3.44,22.73-3.44c10.6,0.01,20.6,2.14,29.74,6
					c9.93,4.2,18.82,10.47,26.09,18.25c1.84,1.95,3.56,4.01,5.17,6.15c0.82,1.08,1.61,2.19,2.37,3.31
					c4.12,6.1,7.38,12.81,9.61,19.98c2.23,7.16,3.43,14.77,3.43,22.73C816.53,999.36,814.39,1009.37,810.53,1018.5z"/>
			</g>
			<polygon class="st3" points="837.11,884.71 739.54,982.28 738.42,989.25 745.2,987.94 842.77,890.36 			"/>
			<path class="st4" d="M786.57,957.3l-26.88,26.88c-0.11-0.47-0.24-0.94-0.38-1.4c-0.58-1.87-1.43-3.63-2.52-5.24
				c-0.24-0.35-0.49-0.7-0.74-1.04l25.52-25.52C783.39,952.96,785.06,955.07,786.57,957.3z"/>
			<path class="st4" d="M826.75,917.12l-25.63,25.63c-1.61-2.14-3.33-4.2-5.17-6.15l25.47-25.47
				C823.26,913.06,825.04,915.06,826.75,917.12z"/>
			<polygon class="st3" points="861.06,841.1 861.06,866.42 886.37,866.42 861.4,891.39 836.09,891.39 836.09,866.08 			"/>
		</g>
	</g>
</g>
</svg>
