<?xml version="1.0" encoding="utf-8"?>
<!-- Generator: Adobe Illustrator 24.0.1, SVG Export Plug-In . SVG Version: 6.00 Build 0)  -->
<svg version="1.0" id="Layer_1" xmlns="http://www.w3.org/2000/svg" xmlns:xlink="http://www.w3.org/1999/xlink" x="0px" y="0px"
	 viewBox="0 0 2000 2000" style="enable-background:new 0 0 2000 2000;" xml:space="preserve">
<style type="text/css">
	.st0{fill:#212121;}
	.st1{fill:none;stroke:#212121;stroke-width:24;stroke-miterlimit:10;}
	.st2{fill:none;stroke:#212121;stroke-width:8;stroke-miterlimit:10;}
	.st3{fill:#B0271C;}
	.st4{opacity:0.2;}
</style>
<g>
	<g>
		<polygon class="st3" points="1451.86,432 1451.86,544.99 1564.85,544.99 1453.38,656.46 1340.39,656.46 1340.39,543.47 		"/>
	</g>
	<g>
		<path class="st3" d="M1180.82,1055.48h-53.56c-0.01,24.94-5.03,48.43-14.09,69.89c-13.59,32.16-36.44,59.69-65.13,79.06
			c-28.73,19.37-62.99,30.62-100.37,30.64c-24.94-0.01-48.43-5.03-69.89-14.09c-32.16-13.59-59.69-36.44-79.06-65.13
			c-19.37-28.73-30.62-62.99-30.64-100.37c0.01-24.94,5.03-48.43,14.09-69.89c13.59-32.16,36.44-59.69,65.13-79.06
			c28.73-19.37,62.99-30.62,100.37-30.64c24.94,0.01,48.43,5.03,69.89,14.09c32.16,13.59,59.69,36.44,79.06,65.13
			c19.37,28.73,30.62,62.99,30.64,100.37H1180.82h53.56c0.01-39.44-8.02-77.29-22.55-111.62c-21.8-51.52-58.09-95.19-103.82-126.1
			c-45.7-30.91-101.15-49.02-160.34-49c-39.44-0.01-77.29,8.02-111.62,22.55c-51.52,21.8-95.19,58.09-126.1,103.82
			c-30.91,45.7-49.02,101.15-49,160.34c-0.01,39.44,8.02,77.29,22.55,111.62c21.8,51.52,58.09,95.19,103.82,126.1
			c45.7,30.91,101.15,49.02,160.34,49c39.44,0.01,77.29-8.02,111.62-22.55c51.52-21.8,95.19-58.09,126.1-103.82
			c30.91-45.7,49.02-101.15,49-160.34H1180.82z"/>
		<path class="st3" d="M1406.63,1055.48h-53.56c-0.01,56.12-11.34,109.31-31.84,157.78c-30.73,72.68-82.21,134.69-146.94,178.41
			c-64.77,43.72-142.48,69.18-226.62,69.2c-56.12-0.01-109.31-11.34-157.78-31.84c-72.68-30.73-134.69-82.21-178.41-146.94
			c-43.72-64.77-69.18-142.48-69.2-226.62c0.01-56.12,11.34-109.31,31.84-157.78c30.73-72.68,82.21-134.69,146.94-178.41
			c64.77-43.72,142.48-69.18,226.62-69.2c56.12,0.01,109.31,11.34,157.78,31.84c72.68,30.73,134.69,82.21,178.41,146.94
			c43.72,64.77,69.18,142.48,69.2,226.62H1406.63h53.56c0.01-70.62-14.34-138.17-40.3-199.51
			c-38.94-92.05-103.86-170.19-185.63-225.45c-81.73-55.26-180.63-87.58-286.59-87.56c-70.62-0.01-138.17,14.34-199.51,40.3
			c-92.04,38.94-170.19,103.86-225.45,185.63c-55.26,81.73-87.58,180.63-87.56,286.59c-0.01,70.62,14.34,138.17,40.3,199.51
			c38.94,92.04,103.86,170.19,185.63,225.44c81.73,55.25,180.63,87.58,286.59,87.56c70.62,0.01,138.17-14.34,199.51-40.3
			c92.05-38.94,170.19-103.86,225.45-185.63c55.26-81.73,87.58-180.63,87.56-286.59H1406.63z"/>
	</g>
	<g class="st4">
		<path d="M1096.62,955.11c1.83,2.71,3.56,5.48,5.24,8.29l77.19-77.19c-8.84-12.07-18.6-23.42-29.18-33.95l-75.79,75.79
			C1082.42,936.33,1090.03,945.35,1096.62,955.11z"/>
		<path d="M1263.66,801.59l76.09-76.09c-9.6-11.4-19.69-22.37-30.24-32.89l-75.75,75.74
			C1244.33,778.88,1254.31,789.97,1263.66,801.59z"/>
	</g>
	<g>
		<path class="st3" d="M960.29,1061.81l409.94-409.93c6.97-6.97,6.97-18.28,0-25.25c-6.97-6.97-18.28-6.97-25.25,0l-409.94,409.93
			c-6.97,6.97-6.97,18.28,0,25.25C942.02,1068.78,953.32,1068.78,960.29,1061.81"/>
	</g>
	<polyline class="st3" points="1063.82,1044.87 914.22,1081.47 950.83,931.88 	"/>
</g>
</svg>
