<?xml version="1.0" encoding="utf-8"?>
<!-- Generator: Adobe Illustrator 24.0.1, SVG Export Plug-In . SVG Version: 6.00 Build 0)  -->
<svg version="1.0" id="Layer_1" xmlns="http://www.w3.org/2000/svg" xmlns:xlink="http://www.w3.org/1999/xlink" x="0px" y="0px"
	 viewBox="0 0 2000 2000" style="enable-background:new 0 0 2000 2000;" xml:space="preserve">
<style type="text/css">
	.st0{fill:#212121;}
	.st1{fill:none;stroke:#212121;stroke-width:24;stroke-miterlimit:10;}
	.st2{fill:none;stroke:#212121;stroke-width:8;stroke-miterlimit:10;}
	.st3{fill:#B0271C;}
	.st4{opacity:0.2;}
</style>
<g>
	<g>
		<path class="st3" d="M1211.84,943.86c-8.26-19.6-18.66-38.03-30.84-55.04c-6.96-9.77-14.55-19.06-22.72-27.81
			c-14.95-16.29-31.82-30.8-50.26-43.25c-45.71-30.89-101.14-49.01-160.33-48.96c-39.46-0.04-77.31,7.99-111.63,22.54
			c-51.51,21.78-95.21,58.07-126.1,103.82c-30.89,45.71-49.01,101.14-49.01,160.33c0,39.46,8.03,77.31,22.59,111.63
			c21.78,51.51,58.07,95.16,103.82,126.1c45.66,30.89,101.14,49.01,160.33,49.01c39.41,0,77.26-8.03,111.63-22.59
			c51.51-21.78,95.16-58.07,126.1-103.82c30.89-45.66,49.01-101.14,48.97-160.33C1234.42,1016.08,1226.39,978.23,1211.84,943.86z
			 M1113.19,1125.39c-13.61,32.14-36.47,59.68-65.12,79.05c-28.75,19.37-63.03,30.62-100.39,30.66c-24.95-0.04-48.43-5.04-69.9-14.1
			c-32.14-13.61-59.68-36.42-79.05-65.12c-19.37-28.75-30.62-62.98-30.66-100.39c0-24.95,5.04-48.43,14.1-69.9
			c13.57-32.14,36.42-59.68,65.12-79.05c28.75-19.37,62.98-30.62,100.39-30.62c24.95,0,48.43,5,69.9,14.06
			c25,10.58,47.18,26.74,64.86,46.87c5.18,5.76,9.86,11.87,14.19,18.26c2.46,3.62,4.73,7.32,6.92,11.11
			c15.09,26.34,23.7,56.6,23.7,89.27C1127.25,1080.44,1122.25,1103.92,1113.19,1125.39z"/>
		<path class="st3" d="M1419.88,855.97c-19.73-46.64-46.11-89.72-78.02-128.06c-7.59-9.19-15.53-18.08-23.79-26.69
			c-25.26-26.42-53.34-50.13-83.78-70.7c-81.77-55.21-180.64-87.57-286.6-87.53c-70.61,0-138.19,14.33-199.52,40.31
			c-92.04,38.92-170.19,103.82-225.45,185.59c-55.26,81.77-87.57,180.64-87.57,286.6c0,70.61,14.37,138.19,40.31,199.52
			c38.97,92.04,103.87,170.19,185.64,225.45c81.73,55.26,180.64,87.57,286.6,87.53c70.61,0.04,138.15-14.33,199.52-40.26
			c92.04-38.97,170.19-103.87,225.41-185.64c55.26-81.73,87.62-180.64,87.57-286.6C1460.19,984.88,1445.86,917.34,1419.88,855.97z
			 M1321.24,1213.28c-30.75,72.67-82.22,134.71-146.94,178.41c-64.77,43.7-142.48,69.18-226.61,69.18
			c-56.11,0-109.31-11.34-157.79-31.83c-72.67-30.71-134.71-82.22-178.41-146.94c-43.74-64.77-69.18-142.48-69.23-226.61
			c0.04-56.11,11.38-109.31,31.87-157.79c30.71-72.67,82.17-134.67,146.94-178.41c64.77-43.7,142.48-69.18,226.61-69.18
			c56.11,0,109.31,11.34,157.79,31.83c52,21.96,98.51,54.59,136.81,95.07c8.17,8.66,16.02,17.68,23.43,27.05
			c6.34,8.03,12.41,16.29,18.17,24.82c43.7,64.77,69.18,142.48,69.18,226.61C1353.06,1111.6,1341.73,1164.8,1321.24,1213.28z"/>
	</g>
	<g>
		<path class="st4" d="M1180.99,888.82l-77.44,77.4c-2.19-3.79-4.46-7.5-6.92-11.11c-4.33-6.38-9.02-12.5-14.19-18.26l75.84-75.84
			C1166.44,869.76,1174.03,879.05,1180.99,888.82z"/>
		<path class="st4" d="M1341.86,727.91l-76.15,76.15c-7.41-9.37-15.27-18.39-23.43-27.05l75.79-75.79
			C1326.33,709.83,1334.27,718.71,1341.86,727.91z"/>
		<g>
			<polygon class="st3" points="1451.87,432.01 1451.87,545 1564.86,545 1453.39,656.47 1340.4,656.47 1340.4,543.48 			"/>
		</g>
		<polygon class="st3" points="1344.99,626.63 945.1,1026.52 940.1,1057.65 970.35,1051.77 1370.24,651.88 		"/>
	</g>
</g>
</svg>
