<?xml version="1.0" encoding="utf-8"?>
<!-- Generator: Adobe Illustrator 24.0.1, SVG Export Plug-In . SVG Version: 6.00 Build 0)  -->
<svg version="1.0" id="Layer_1" xmlns="http://www.w3.org/2000/svg" xmlns:xlink="http://www.w3.org/1999/xlink" x="0px" y="0px"
	 viewBox="0 0 2000 2000" style="enable-background:new 0 0 2000 2000;" xml:space="preserve">
<style type="text/css">
	.st0{fill:#212121;}
	.st1{fill:none;stroke:#212121;stroke-width:24;stroke-miterlimit:10;}
	.st2{fill:none;stroke:#212121;stroke-width:8;stroke-miterlimit:10;}
	.st3{fill:#B0271C;}
	.st4{opacity:0.2;}
</style>
<g>
	<g>
		<g>
			<path d="M545.68,1123.57v26.2h-5.21v-26.2h-9.75v-4.68h24.75v4.68H545.68z"/>
			<path d="M587.19,1123.57v8.34h15.09v4.68h-15.09v8.51h17.38v4.68h-22.59v-30.88h22.06v4.68H587.19z"/>
			<path d="M653.94,1121.85l-2.16,4.59c-3.35-2.03-6.71-2.87-9.04-2.87c-3.04,0-5.03,1.15-5.03,3.22c0,6.75,16.67,3.13,16.63,14.25
				c0,5.51-4.85,8.91-11.65,8.91c-4.85,0-9.44-1.98-12.62-4.9l2.25-4.5c3.18,2.91,7.15,4.5,10.46,4.5c3.62,0,5.78-1.37,5.78-3.75
				c0-6.88-16.67-3.04-16.67-14.03c0-5.29,4.54-8.6,11.25-8.6C647.15,1118.68,651.07,1119.96,653.94,1121.85z"/>
			<path d="M693.78,1123.57v26.2h-5.21v-26.2h-9.75v-4.68h24.75v4.68H693.78z"/>
			<path d="M775.84,1118.9c7.76,0,12.22,3.84,12.22,10.54c0,6.97-4.46,11.03-12.22,11.03h-7.1v9.31h-5.21v-30.88H775.84z
				 M768.74,1135.79h6.88c4.76,0,7.46-2.03,7.46-6.22c0-4.06-2.69-6-7.46-6h-6.88V1135.79z"/>
			<path d="M829.22,1140.43c-0.44,0.04-0.93,0.04-1.41,0.04h-7.32v9.31h-5.21v-30.88h12.53c7.9,0,12.44,3.84,12.44,10.54
				c0,4.94-2.29,8.43-6.4,10.01l6.93,10.32h-5.91L829.22,1140.43z M827.81,1135.79c4.76,0,7.5-2.03,7.5-6.22c0-4.06-2.74-6-7.5-6
				h-7.32v12.22H827.81z"/>
			<path d="M874.44,1123.57v8.34h15.09v4.68h-15.09v8.51h17.38v4.68h-22.59v-30.88h22.06v4.68H874.44z"/>
			<path d="M932.54,1118.9c7.76,0,12.22,3.84,12.22,10.54c0,6.97-4.46,11.03-12.22,11.03h-7.1v9.31h-5.21v-30.88H932.54z
				 M925.44,1135.79h6.88c4.76,0,7.46-2.03,7.46-6.22c0-4.06-2.69-6-7.46-6h-6.88V1135.79z"/>
			<path d="M1022.9,1145.9c-2.74,2.6-5.91,4.1-9.31,4.1c-5.51,0-9.7-3.66-9.7-8.65c0-4.37,3.18-6.71,6.66-8.56
				c-2.03-2.74-2.96-4.94-2.96-7.15c0-4.1,3.22-6.97,8.03-6.97c4.63,0,7.81,2.69,7.81,6.48c0,4.23-3.71,6.44-7.5,8.43
				c1.68,1.9,3.84,4.1,6.48,6.71c1.06-1.59,1.98-3.44,2.78-5.56l3.31,2.47c-0.93,2.21-1.98,4.19-3.22,5.87l5.03,4.9l-2.6,2.65
				L1022.9,1145.9z M1020.12,1143.16c-3.09-3.09-5.56-5.6-7.5-7.81c-2.56,1.46-4.54,3.09-4.54,5.6c0,3.09,2.51,5.21,5.69,5.21
				C1016.01,1146.16,1018.18,1145.06,1020.12,1143.16z M1013.9,1131.07c3-1.54,5.51-3.13,5.51-5.87c0-2.03-1.46-3.35-3.75-3.35
				c-2.47,0-4.06,1.63-4.06,3.75C1011.6,1127.24,1012.35,1128.96,1013.9,1131.07z"/>
			<path d="M1101.47,1123.57v26.2h-5.21v-26.2h-9.75v-4.68h24.75v4.68H1101.47z"/>
			<path d="M1164.03,1136.98c0,8.07-5.07,13.01-13.41,13.01s-13.45-4.94-13.45-13.01v-18.09h5.21v18.09c0,5.21,3.22,8.34,8.29,8.34
				c5.03,0,8.16-3.09,8.16-8.34v-18.09h5.21V1136.98z"/>
			<path d="M1204.84,1123.57v26.2h-5.21v-26.2h-9.75v-4.68h24.75v4.68H1204.84z"/>
			<path d="M1269.47,1134.34c0,8.82-7.15,15.66-16.37,15.66s-16.37-6.84-16.37-15.66c0-8.87,7.15-15.57,16.37-15.57
				S1269.47,1125.52,1269.47,1134.34z M1242.03,1134.34c0,6.13,5.07,10.98,11.12,10.98c6.04,0,10.98-4.85,10.98-10.98
				c0-6.13-4.94-10.9-10.98-10.9C1247.06,1123.44,1242.03,1128.21,1242.03,1134.34z"/>
			<path d="M1311.03,1140.43c-0.44,0.04-0.93,0.04-1.41,0.04h-7.32v9.31h-5.21v-30.88h12.53c7.9,0,12.44,3.84,12.44,10.54
				c0,4.94-2.29,8.43-6.4,10.01l6.93,10.32h-5.91L1311.03,1140.43z M1309.62,1135.79c4.76,0,7.5-2.03,7.5-6.22c0-4.06-2.74-6-7.5-6
				h-7.32v12.22H1309.62z"/>
			<path d="M1351.05,1149.78v-30.88h5.21v30.88H1351.05z"/>
			<path d="M1408.09,1149.78l-16.45-22.15v22.15h-5.21v-30.88h5.12l16.54,22.19v-22.19h5.12v30.88H1408.09z"/>
			<path d="M1469.1,1134.6v11.38c-3.13,2.38-7.76,4.01-12,4.01c-9.13,0-16.23-6.84-16.23-15.66c0-8.82,7.19-15.57,16.54-15.57
				c4.41,0,8.82,1.68,11.87,4.32l-2.96,3.84c-2.38-2.21-5.69-3.53-8.91-3.53c-6.31,0-11.25,4.81-11.25,10.94
				c0,6.18,4.98,10.98,11.29,10.98c2.29,0,4.9-0.79,7.1-2.12v-8.6H1469.1z"/>
		</g>
	</g>
	<g>
		<g>
			<path class="st3" d="M799.3,964.06c-1.85-4.39-4.18-8.52-6.91-12.33c-1.56-2.19-3.26-4.27-5.09-6.23
				c-3.35-3.65-7.13-6.9-11.26-9.69c-10.24-6.92-22.66-10.98-35.92-10.97c-8.84-0.01-17.32,1.79-25.01,5.05
				c-11.54,4.88-21.33,13.01-28.25,23.26c-6.92,10.24-10.98,22.66-10.98,35.92c0,8.84,1.8,17.32,5.06,25.01
				c4.88,11.54,13.01,21.32,23.26,28.25c10.23,6.92,22.66,10.98,35.92,10.98c8.83,0,17.31-1.8,25.01-5.06
				c11.54-4.88,21.32-13.01,28.25-23.26c6.92-10.23,10.98-22.66,10.97-35.92C804.36,980.24,802.56,971.76,799.3,964.06z
				 M777.2,1004.73c-3.05,7.2-8.17,13.37-14.59,17.71c-6.44,4.34-14.12,6.86-22.49,6.87c-5.59-0.01-10.85-1.13-15.66-3.16
				c-7.2-3.05-13.37-8.16-17.71-14.59c-4.34-6.44-6.86-14.11-6.87-22.49c0-5.59,1.13-10.85,3.16-15.66
				c3.04-7.2,8.16-13.37,14.59-17.71c6.44-4.34,14.11-6.86,22.49-6.86c5.59,0,10.85,1.12,15.66,3.15c5.6,2.37,10.57,5.99,14.53,10.5
				c1.16,1.29,2.21,2.66,3.18,4.09c0.55,0.81,1.06,1.64,1.55,2.49c3.38,5.9,5.31,12.68,5.31,20
				C780.35,994.66,779.23,999.92,777.2,1004.73z"/>
			<path class="st3" d="M845.91,944.37c-4.42-10.45-10.33-20.1-17.48-28.69c-1.7-2.06-3.48-4.05-5.33-5.98
				c-5.66-5.92-11.95-11.23-18.77-15.84c-18.32-12.37-40.47-19.62-64.21-19.61c-15.82,0-30.96,3.21-44.7,9.03
				c-20.62,8.72-38.13,23.26-50.51,41.58c-12.38,18.32-19.62,40.47-19.62,64.21c0,15.82,3.22,30.96,9.03,44.7
				c8.73,20.62,23.27,38.13,41.59,50.51c18.31,12.38,40.47,19.62,64.21,19.61c15.82,0.01,30.95-3.21,44.7-9.02
				c20.62-8.73,38.13-23.27,50.5-41.59c12.38-18.31,19.63-40.47,19.62-64.21C854.94,973.25,851.73,958.12,845.91,944.37z
				 M823.81,1024.42c-6.89,16.28-18.42,30.18-32.92,39.97c-14.51,9.79-31.92,15.5-50.77,15.5c-12.57,0-24.49-2.54-35.35-7.13
				c-16.28-6.88-30.18-18.42-39.97-32.92c-9.8-14.51-15.5-31.92-15.51-50.77c0.01-12.57,2.55-24.49,7.14-35.35
				c6.88-16.28,18.41-30.17,32.92-39.97c14.51-9.79,31.92-15.5,50.77-15.5c12.57,0,24.49,2.54,35.35,7.13
				c11.65,4.92,22.07,12.23,30.65,21.3c1.83,1.94,3.59,3.96,5.25,6.06c1.42,1.8,2.78,3.65,4.07,5.56
				c9.79,14.51,15.5,31.92,15.5,50.77C830.94,1001.64,828.4,1013.56,823.81,1024.42z"/>
		</g>
		<g>
			<g>
				<path d="M575.41,1082.49V958.66l-48.8,105.2h-27.02l-48.8-105.2v123.83h-37.52V898.85h46.44l53.52,112.28l53.26-112.28h46.17
					v183.64H575.41z"/>
				<path d="M948.45,1030.02h-3.94h-38.3v52.47h-41.45V898.85h79.75c48.01,0,75.29,23.09,75.29,63.75
					c0,28.33-12.07,48.8-34.37,59.29l39.09,60.6h-46.96L948.45,1030.02z M944.52,995.39c22.82,0,35.94-10.49,35.94-31.48
					c0-20.46-13.12-30.69-35.94-30.69h-38.3v62.18H944.52z"/>
				<path d="M1096.15,933.22v39.88h88.67v34.37h-88.67v40.66h101.26v34.37H1054.7V898.85h139.83v34.37H1096.15z"/>
				<path d="M1309.17,934v148.49h-41.45V934h-55.88v-35.15h153.47V934H1309.17z"/>
				<path d="M1466.83,934v148.49h-41.45V934h-55.88v-35.15h153.47V934H1466.83z"/>
				<path d="M1545.27,1082.49V898.85h41.45v183.64H1545.27z"/>
			</g>
		</g>
		<g>
			<path class="st4" d="M792.39,951.73l-17.35,17.34c-0.49-0.85-1-1.68-1.55-2.49c-0.97-1.43-2.02-2.8-3.18-4.09l16.99-16.99
				C789.13,947.46,790.83,949.54,792.39,951.73z"/>
			<path class="st4" d="M828.43,915.68l-17.06,17.06c-1.66-2.1-3.42-4.12-5.25-6.06l16.98-16.98
				C824.95,911.63,826.73,913.62,828.43,915.68z"/>
			<g>
				<polygon class="st3" points="853.08,849.38 853.08,874.7 878.39,874.7 853.42,899.67 828.1,899.67 828.1,874.36 				"/>
			</g>
			<polygon class="st3" points="829.13,892.99 739.54,982.58 738.42,989.55 745.2,988.23 834.79,898.64 			"/>
		</g>
	</g>
</g>
</svg>
