<?xml version="1.0" encoding="utf-8"?>
<!-- Generator: Adobe Illustrator 24.0.1, SVG Export Plug-In . SVG Version: 6.00 Build 0)  -->
<svg version="1.0" id="Layer_1" xmlns="http://www.w3.org/2000/svg" xmlns:xlink="http://www.w3.org/1999/xlink" x="0px" y="0px"
	 viewBox="0 0 2000 2000" style="enable-background:new 0 0 2000 2000;" xml:space="preserve">
<style type="text/css">
	.st0{fill:#212121;}
	.st1{fill:none;stroke:#212121;stroke-width:24;stroke-miterlimit:10;}
	.st2{fill:none;stroke:#212121;stroke-width:8;stroke-miterlimit:10;}
	.st3{fill:#B0271C;}
	.st4{opacity:0.2;}
</style>
<g>
	<g>
		<path class="st3" d="M1155.15,981.16c-6.38-15.18-14.24-29.55-23.34-42.94c-6.74-9.95-14.19-19.37-22.32-28.21
			c-13.35-14.69-28.43-27.72-44.95-38.92c-20-13.48-42.05-24.19-65.66-31.56c-23.57-7.32-48.65-11.25-74.41-11.25
			c-34.37,0-67.49,7.01-97.48,19.68c-45.04,19.1-83.11,50.71-110.12,90.65c-13.48,19.95-24.19,42.05-31.51,65.61
			c-7.36,23.57-11.29,48.65-11.29,74.45c0,34.32,7.01,67.44,19.73,97.48c19.06,45.04,50.71,83.11,90.61,110.07
			c19.95,13.48,42.05,24.19,65.61,31.56c23.61,7.32,48.7,11.25,74.45,11.25c34.32,0,67.49-7.01,97.48-19.68
			c45.04-19.1,83.11-50.71,110.07-90.65c13.52-19.95,24.24-42.05,31.56-65.61c7.32-23.57,11.29-48.65,11.25-74.41
			C1174.88,1044.32,1167.87,1011.2,1155.15,981.16z M1007.14,1113.55c-6.74,16.02-18.21,29.86-32.58,39.55
			c-7.19,4.87-15.04,8.66-23.39,11.25c-8.35,2.59-17.23,4.02-26.69,4.02c-12.63,0-24.19-2.5-34.9-7.01
			c-15.98-6.74-29.86-18.21-39.55-32.58c-4.82-7.19-8.61-15.04-11.25-23.39c-2.59-8.39-4.02-17.27-4.02-26.69
			c0-12.63,2.5-24.24,7.01-34.91c6.78-15.98,18.26-29.86,32.58-39.55c7.19-4.87,15.04-8.66,23.43-11.25
			c8.35-2.59,17.23-4.02,26.69-4.02c12.59,0,24.19,2.5,34.9,7.01c14.24,5.98,26.74,15.76,36.2,27.94c1.12,1.52,2.23,3.08,3.3,4.64
			c4.87,7.19,8.66,15.04,11.25,23.39c0.62,2.05,1.21,4.15,1.7,6.25c1.52,6.52,2.32,13.3,2.32,20.49
			C1014.15,1091.28,1011.65,1102.89,1007.14,1113.55z"/>
		<path class="st3" d="M1386.76,883.32c-19.19-45.3-44.77-87.13-75.61-124.44c-7.63-9.19-15.58-18.12-23.79-26.74
			c-24.82-25.98-52.4-49.28-82.31-69.5c-40.04-27.05-84.23-48.47-131.41-63.16c-47.18-14.69-97.39-22.59-149.17-22.59
			c-69.05,0-135.25,14.06-195.32,39.46c-90.16,38.16-166.62,101.68-220.68,181.71c-27.05,40.04-48.52,84.23-63.2,131.41
			c-14.68,47.22-22.54,97.39-22.54,149.22c-0.04,69.05,14.02,135.25,39.46,195.32c38.12,90.12,101.64,166.58,181.71,220.68
			c39.99,27.05,84.18,48.47,131.41,63.16c47.18,14.69,97.39,22.59,149.17,22.59c69.05,0,135.25-14.06,195.32-39.46
			c90.16-38.16,166.58-101.68,220.68-181.71c27.05-40.04,48.47-84.23,63.16-131.41c14.69-47.22,22.59-97.39,22.59-149.17
			C1426.22,1009.6,1412.16,943.4,1386.76,883.32z M1238.75,1211.39c-25.8,61.11-69.18,113.37-123.64,150.15
			c-27.23,18.39-57.22,32.94-89.18,42.85c-32,9.95-65.97,15.35-101.46,15.35c-47.31-0.04-91.99-9.55-132.75-26.78
			c-61.11-25.84-113.33-69.18-150.11-123.69c-18.43-27.23-32.94-57.18-42.89-89.18c-9.95-31.96-15.31-65.93-15.31-101.41
			c0-47.31,9.51-91.99,26.74-132.75c25.84-61.11,69.18-113.37,123.68-150.15c27.23-18.39,57.22-32.94,89.18-42.85
			c31.96-9.95,65.97-15.35,101.46-15.35c47.31,0.04,91.95,9.55,132.75,26.78c44.32,18.75,84,46.73,116.45,81.46
			c8.21,8.7,15.89,17.9,23.08,27.45c3.66,4.82,7.19,9.78,10.58,14.77c18.39,27.23,32.94,57.18,42.89,89.18
			c9.95,31.96,15.31,65.93,15.31,101.46C1265.53,1125.96,1255.98,1170.64,1238.75,1211.39z"/>
	</g>
	<polygon class="st3" points="1357.4,614.19 921.89,1049.7 916.88,1080.83 947.14,1074.95 1382.65,639.44 	"/>
	<path class="st4" d="M1131.8,938.23l-119.98,119.98c-0.49-2.1-1.07-4.2-1.7-6.25c-2.59-8.35-6.38-16.2-11.25-23.39
		c-1.07-1.56-2.19-3.12-3.3-4.64l113.91-113.91C1117.61,918.85,1125.06,928.27,1131.8,938.23z"/>
	<path class="st4" d="M1311.15,758.88l-114.4,114.4c-7.19-9.55-14.86-18.75-23.08-27.45l113.69-113.69
		C1295.57,740.76,1303.52,749.69,1311.15,758.88z"/>
	<polygon class="st3" points="1464.28,419.56 1464.28,532.55 1577.27,532.55 1465.8,644.03 1352.81,644.03 1352.81,531.04 	"/>
</g>
</svg>
